<?xml version="1.0" encoding="UTF-8"?>
<svg xmlns="http://www.w3.org/2000/svg" xmlns:xlink="http://www.w3.org/1999/xlink" width="20px" height="20px" viewBox="0 0 20 19" version="1.1">
<g id="surface1">
<path style=" stroke:none;fill-rule:nonzero;fill:rgb(0%,0%,0%);fill-opacity:1;" d="M 8.128906 0 C 10.375 0 12.40625 0.886719 13.875 2.320312 C 15.34375 3.75 16.253906 5.726562 16.253906 7.910156 L 16.257812 7.910156 L 16.257812 7.921875 L 16.253906 7.921875 C 16.253906 8.800781 16.105469 9.648438 15.832031 10.4375 C 15.789062 10.570312 15.738281 10.695312 15.691406 10.820312 C 15.457031 11.398438 15.152344 11.945312 14.789062 12.453125 L 19.515625 16.589844 L 19.519531 16.59375 L 19.546875 16.617188 C 19.816406 16.867188 19.960938 17.195312 19.976562 17.53125 C 19.996094 17.867188 19.890625 18.207031 19.65625 18.476562 L 19.65625 18.480469 L 19.625 18.511719 L 19.621094 18.519531 L 19.59375 18.546875 C 19.339844 18.808594 19 18.949219 18.65625 18.964844 C 18.3125 18.984375 17.964844 18.878906 17.683594 18.652344 L 17.679688 18.652344 L 17.648438 18.625 L 17.644531 18.621094 L 12.808594 14.386719 C 12.664062 14.484375 12.515625 14.578125 12.371094 14.667969 C 12.167969 14.785156 11.960938 14.898438 11.75 15 C 10.660156 15.53125 9.429688 15.828125 8.128906 15.828125 L 8.125 15.828125 C 5.882812 15.828125 3.851562 14.941406 2.378906 13.507812 C 0.910156 12.078125 0.00390625 10.101562 0 7.921875 L 0 7.914062 C 0 5.726562 0.910156 3.75 2.382812 2.316406 C 3.851562 0.886719 5.878906 0.00390625 8.121094 0 Z M 8.128906 1.773438 L 8.128906 1.777344 L 8.121094 1.777344 L 8.121094 1.773438 C 6.386719 1.777344 4.808594 2.464844 3.671875 3.574219 C 2.53125 4.683594 1.824219 6.21875 1.824219 7.914062 L 1.824219 7.921875 C 1.824219 9.613281 2.53125 11.144531 3.667969 12.253906 C 4.808594 13.367188 6.386719 14.054688 8.125 14.054688 L 8.132812 14.054688 C 9.871094 14.054688 11.445312 13.367188 12.585938 12.253906 C 13.726562 11.144531 14.433594 9.609375 14.433594 7.917969 L 14.433594 7.910156 C 14.433594 6.21875 13.726562 4.683594 12.585938 3.574219 C 11.445312 2.464844 9.871094 1.777344 8.128906 1.773438 Z M 8.128906 1.773438 "/>
</g>
</svg>
